<?xml version="1.0" standalone="no"?>
<!DOCTYPE svg PUBLIC "-//W3C//DTD SVG 20010904//EN"
 "http://www.w3.org/TR/2001/REC-SVG-20010904/DTD/svg10.dtd">
<svg version="1.0" xmlns="http://www.w3.org/2000/svg"
 width="625.000000pt" height="272.000000pt" viewBox="0 0 625.000000 272.000000"
 preserveAspectRatio="xMidYMid meet">

<g transform="translate(0.000000,272.000000) scale(0.100000,-0.100000)"
fill="#000000" stroke="none">
<path d="M740 1688 c-112 -57 -120 -192 -15 -253 90 -53 230 -22 269 59 49
104 -35 216 -164 216 -28 0 -63 -9 -90 -22z m169 -26 c36 -19 71 -72 71 -107
0 -28 -34 -81 -66 -102 -18 -12 -47 -18 -84 -18 -65 0 -101 19 -130 68 -25 40
-25 63 -2 106 36 66 138 92 211 53z"/>
<path d="M749 1621 c-73 -73 2 -180 110 -156 35 8 81 48 81 71 0 13 -3 14 -14
4 -21 -17 -56 -9 -73 17 -13 19 -12 24 7 43 14 14 29 20 43 16 21 -5 21 -4 -2
15 -16 13 -38 19 -73 19 -41 0 -54 -5 -79 -29z"/>
<path d="M1690 1688 c-112 -57 -120 -192 -15 -253 90 -53 230 -22 269 59 49
104 -35 216 -164 216 -28 0 -63 -9 -90 -22z m169 -26 c36 -19 71 -72 71 -107
0 -28 -34 -81 -66 -102 -18 -12 -47 -18 -84 -18 -65 0 -101 19 -130 68 -25 40
-25 63 -2 106 36 66 138 92 211 53z"/>
<path d="M1699 1621 c-73 -73 2 -180 110 -156 35 8 81 48 81 71 0 13 -3 14
-14 4 -21 -17 -56 -9 -73 17 -13 19 -12 24 7 43 14 14 29 20 43 16 21 -5 21
-4 -2 15 -16 13 -38 19 -73 19 -41 0 -54 -5 -79 -29z"/>
</g>
</svg>
