<?xml version="1.0" encoding="UTF-8"?>
<!DOCTYPE svg PUBLIC "-//W3C//DTD SVG 1.1//EN" "http://www.w3.org/Graphics/SVG/1.1/DTD/svg11.dtd">
<svg xmlns="http://www.w3.org/2000/svg" version="1.1" width="625px" height="272px" style="shape-rendering:geometricPrecision; text-rendering:geometricPrecision; image-rendering:optimizeQuality; fill-rule:evenodd; clip-rule:evenodd" xmlns:xlink="http://www.w3.org/1999/xlink">
<g><path style="opacity:0.922" fill="#c7ad66" d="M 108.5,-0.5 C 120.5,-0.5 132.5,-0.5 144.5,-0.5C 186.204,4.76941 222.371,21.7694 253,50.5C 256.195,115.921 236.528,173.254 194,222.5C 173.975,243.417 150.809,259.75 124.5,271.5C 123.167,271.5 121.833,271.5 120.5,271.5C 57.0044,238.78 18.171,187.113 4,116.5C 2.15624,105.732 0.656236,95.065 -0.5,84.5C -0.5,74.8333 -0.5,65.1667 -0.5,55.5C -0.306013,51.6647 1.36065,48.4981 4.5,46C 34.4414,19.9627 69.1081,4.46272 108.5,-0.5 Z M 121.5,7.5 C 168.444,7.73985 209.277,23.4065 244,54.5C 246.62,126.03 221.62,185.696 169,233.5C 157.358,202.239 145.525,171.072 133.5,140C 140.492,139.5 147.492,139.334 154.5,139.5C 151.682,156.513 158.848,164.513 176,163.5C 193.152,164.513 200.318,156.513 197.5,139.5C 207.105,141.036 214.271,137.703 219,129.5C 220.568,121.579 220.901,113.579 220,105.5C 218.5,98.6667 214.333,94.5 207.5,93C 203.167,92.6667 198.833,92.3333 194.5,92C 186.305,80.638 178.305,69.138 170.5,57.5C 142.173,56.3335 113.839,56.1668 85.5,57C 77.3051,68.362 69.3051,79.862 61.5,91.5C 56.1975,92.3295 50.8642,92.8295 45.5,93C 38.6667,94.5 34.5,98.6667 33,105.5C 32.0991,113.579 32.4325,121.579 34,129.5C 38.4253,137.462 45.2586,140.795 54.5,139.5C 51.6816,156.513 58.8483,164.513 76,163.5C 93.1517,164.513 100.318,156.513 97.5,139.5C 103.167,139.5 108.833,139.5 114.5,139.5C 102.889,170.722 90.7221,201.722 78,232.5C 28.1085,183.86 5.1085,124.527 9,54.5C 41.0085,25.7474 78.5085,10.0807 121.5,7.5 Z M 89.5,64.5 C 114.836,64.3334 140.169,64.5 165.5,65C 171.043,73.2539 176.71,81.4205 182.5,89.5C 145.838,90.6666 109.171,90.8333 72.5,90C 78.3009,81.5574 83.9676,73.0574 89.5,64.5 Z M 75.5,100.5 C 65.2106,105.092 62.044,112.759 66,123.5C 69.1496,127.311 72.983,129.977 77.5,131.5C 67.1613,131.666 56.828,131.5 46.5,131C 44,129.833 42.1667,128 41,125.5C 40.3333,119.167 40.3333,112.833 41,106.5C 41.7845,104.714 42.9512,103.214 44.5,102C 54.729,100.549 65.0623,100.049 75.5,100.5 Z M 89.5,100.5 C 116.5,100.5 143.5,100.5 170.5,100.5C 160.211,105.092 157.044,112.759 161,123.5C 164.15,127.311 167.983,129.977 172.5,131.5C 144.167,131.5 115.833,131.5 87.5,131.5C 100.324,127.177 103.824,118.843 98,106.5C 95.3629,104.109 92.5296,102.109 89.5,100.5 Z M 184.5,100.5 C 192.611,100.065 200.611,100.565 208.5,102C 210.049,103.214 211.215,104.714 212,106.5C 212.667,112.833 212.667,119.167 212,125.5C 210.833,128 209,129.833 206.5,131C 198.507,131.5 190.507,131.666 182.5,131.5C 195.324,127.177 198.824,118.843 193,106.5C 190.363,104.109 187.53,102.109 184.5,100.5 Z M 61.5,139.5 C 71.1667,139.5 80.8333,139.5 90.5,139.5C 93.0897,151.739 88.2564,157.073 76,155.5C 63.7436,157.073 58.9103,151.739 61.5,139.5 Z M 122.5,139.5 C 123.822,139.33 124.989,139.663 126,140.5C 138.068,172.872 150.235,205.205 162.5,237.5C 152.017,246.583 140.35,253.916 127.5,259.5C 126.823,248.272 126.157,237.105 125.5,226C 123.231,225.242 121.064,225.409 119,226.5C 118.832,237.515 118.332,248.515 117.5,259.5C 105.389,253.702 94.3889,246.369 84.5,237.5C 97.7411,205.024 110.408,172.357 122.5,139.5 Z M 161.5,139.5 C 171.167,139.5 180.833,139.5 190.5,139.5C 193.09,151.739 188.256,157.073 176,155.5C 163.744,157.073 158.91,151.739 161.5,139.5 Z"/></g>
<g><path style="opacity:0.861" fill="#0f0f10" d="M 75.5,100.5 C 80.1667,100.5 84.8333,100.5 89.5,100.5C 92.5296,102.109 95.3629,104.109 98,106.5C 103.824,118.843 100.324,127.177 87.5,131.5C 84.1667,131.5 80.8333,131.5 77.5,131.5C 72.983,129.977 69.1496,127.311 66,123.5C 62.044,112.759 65.2106,105.092 75.5,100.5 Z"/></g>
<g><path style="opacity:0.861" fill="#0f0f10" d="M 170.5,100.5 C 175.167,100.5 179.833,100.5 184.5,100.5C 187.53,102.109 190.363,104.109 193,106.5C 198.824,118.843 195.324,127.177 182.5,131.5C 179.167,131.5 175.833,131.5 172.5,131.5C 167.983,129.977 164.15,127.311 161,123.5C 157.044,112.759 160.211,105.092 170.5,100.5 Z"/></g>
<g><path style="opacity:1" fill="#e0e0e2" d="M 76.5,103.5 C 85.822,101.251 92.6553,104.251 97,112.5C 96.7193,124.435 90.5526,129.602 78.5,128C 68.6335,124.442 65.8001,117.942 70,108.5C 72.3256,106.934 74.4922,105.268 76.5,103.5 Z"/></g>
<g><path style="opacity:1" fill="#e0e0e2" d="M 171.5,103.5 C 180.822,101.251 187.655,104.251 192,112.5C 191.719,124.435 185.553,129.602 173.5,128C 163.633,124.442 160.8,117.942 165,108.5C 167.326,106.934 169.492,105.268 171.5,103.5 Z"/></g>
<g><path style="opacity:1" fill="#151516" d="M 77.5,106.5 C 82.1568,105.994 86.4901,106.827 90.5,109C 84.3839,109.945 83.0506,112.945 86.5,118C 88.9951,118.157 91.3284,118.324 93.5,118.5C 87.7688,126.438 80.9355,127.438 73,121.5C 70.0739,115.085 71.5739,110.085 77.5,106.5 Z"/></g>
<g><path style="opacity:1" fill="#151516" d="M 172.5,106.5 C 177.157,105.994 181.49,106.827 185.5,109C 179.384,109.945 178.051,112.945 181.5,118C 183.995,118.157 186.328,118.324 188.5,118.5C 182.769,126.438 175.936,127.438 168,121.5C 165.074,115.085 166.574,110.085 172.5,106.5 Z"/></g>
<g><path style="opacity:0.786" fill="#c7ad66" d="M 246.5,141.5 C 265.167,141.5 283.833,141.5 302.5,141.5C 302.5,150.5 302.5,159.5 302.5,168.5C 300.833,168.5 299.167,168.5 297.5,168.5C 296.896,160.839 293.896,154.339 288.5,149C 286.655,147.872 284.655,147.372 282.5,147.5C 282.333,167.836 282.5,188.169 283,208.5C 285.419,210.585 288.253,211.585 291.5,211.5C 291.5,213.167 291.5,214.833 291.5,216.5C 280.147,216.832 268.814,216.499 257.5,215.5C 257.291,214.914 256.957,214.414 256.5,214C 259.493,211.948 262.659,210.115 266,208.5C 266.5,188.169 266.667,167.836 266.5,147.5C 260.03,148.465 255.864,152.132 254,158.5C 252.85,161.768 252.016,165.101 251.5,168.5C 249.833,168.5 248.167,168.5 246.5,168.5C 246.5,159.5 246.5,150.5 246.5,141.5 Z M 247.5,143.5 C 264.5,143.5 281.5,143.5 298.5,143.5C 298.666,149.842 298.5,156.175 298,162.5C 296.136,154.909 291.969,149.075 285.5,145C 283.19,144.503 280.857,144.337 278.5,144.5C 278.333,166.503 278.5,188.503 279,210.5C 279.903,211.701 281.069,212.535 282.5,213C 276.167,213.667 269.833,213.667 263.5,213C 266.128,211.431 267.795,209.098 268.5,206C 267.517,185.534 267.184,165.034 267.5,144.5C 260.598,143.867 255.431,146.534 252,152.5C 250.073,155.948 248.739,159.615 248,163.5C 247.5,156.842 247.334,150.175 247.5,143.5 Z"/></g>
<g><path style="opacity:0.729" fill="#c7ad66" d="M 356.5,141.5 C 363.167,141.5 369.833,141.5 376.5,141.5C 376.333,163.169 376.5,184.836 377,206.5C 377.727,209.955 379.893,211.621 383.5,211.5C 383.5,213.167 383.5,214.833 383.5,216.5C 374.5,216.5 365.5,216.5 356.5,216.5C 356.5,214.833 356.5,213.167 356.5,211.5C 359.099,211.451 361.266,210.451 363,208.5C 363.667,189.167 363.667,169.833 363,150.5C 361.713,147.855 359.547,146.855 356.5,147.5C 356.5,145.5 356.5,143.5 356.5,141.5 Z M 360.5,145.5 C 364.298,144.517 368.298,144.183 372.5,144.5C 372.333,165.836 372.5,187.169 373,208.5C 373.273,210.329 374.107,211.829 375.5,213C 370.833,213.667 366.167,213.667 361.5,213C 362.701,212.097 363.535,210.931 364,209.5C 364.667,189.167 364.667,168.833 364,148.5C 363.578,146.574 362.411,145.574 360.5,145.5 Z"/></g>
<g><path style="opacity:0.723" fill="#c7ad66" d="M 433.5,141.5 C 440.167,141.5 446.833,141.5 453.5,141.5C 453.333,155.504 453.5,169.504 454,183.5C 457.333,180.167 460.667,176.833 464,173.5C 464.483,172.552 464.649,171.552 464.5,170.5C 459.832,171.161 457.832,169.161 458.5,164.5C 466.167,164.5 473.833,164.5 481.5,164.5C 481.66,166.199 481.494,167.866 481,169.5C 474.728,171.762 469.561,175.595 465.5,181C 469.186,190.209 473.02,199.376 477,208.5C 478.734,210.451 480.901,211.451 483.5,211.5C 483.5,213.167 483.5,214.833 483.5,216.5C 477.491,216.666 471.491,216.499 465.5,216C 461.733,208.192 458.066,200.359 454.5,192.5C 453.337,197.802 453.171,203.136 454,208.5C 455.264,210.607 457.097,211.607 459.5,211.5C 459.5,213.167 459.5,214.833 459.5,216.5C 450.5,216.5 441.5,216.5 432.5,216.5C 432.5,214.833 432.5,213.167 432.5,211.5C 434.936,211.683 437.103,211.016 439,209.5C 439.667,189.5 439.667,169.5 439,149.5C 437.4,148.134 435.567,147.134 433.5,146.5C 432.465,144.872 432.465,143.205 433.5,141.5 Z M 436.5,145.5 C 440.634,144.515 444.968,144.182 449.5,144.5C 449.669,163.31 449.669,181.976 449.5,200.5C 449.667,203.833 449.833,207.167 450,210.5C 450.833,211.333 451.667,212.167 452.5,213C 447.5,213.667 442.5,213.667 437.5,213C 439.726,211.38 441.06,209.214 441.5,206.5C 440.173,188.66 440.173,170.827 441.5,153C 440.863,150.755 440.03,148.588 439,146.5C 438.329,145.748 437.496,145.414 436.5,145.5 Z M 465.5,174.5 C 465.896,171.956 465.229,169.789 463.5,168C 467.167,167.333 470.833,167.333 474.5,168C 471.117,169.686 468.117,171.853 465.5,174.5 Z M 459.5,180.5 C 464.315,189.405 468.481,198.738 472,208.5C 472.785,210.286 473.951,211.786 475.5,213C 471.909,213.789 468.409,213.622 465,212.5C 461.553,203.776 457.719,195.276 453.5,187C 455.706,184.963 457.706,182.797 459.5,180.5 Z"/></g>
<g><path style="opacity:0.876" fill="#c7ad66" d="M 119.5,160.5 C 121.604,160.201 123.604,160.534 125.5,161.5C 126.833,168.833 126.833,176.167 125.5,183.5C 123.604,184.466 121.604,184.799 119.5,184.5C 119.5,176.5 119.5,168.5 119.5,160.5 Z"/></g>
<g><path style="opacity:0.712" fill="#c7ad66" d="M 400.5,163.5 C 407.556,162.618 414.056,163.952 420,167.5C 421.751,169.49 422.751,171.823 423,174.5C 423.333,185.833 423.667,197.167 424,208.5C 425.156,209.993 425.99,209.826 426.5,208C 427.287,205.901 427.62,203.734 427.5,201.5C 428.833,201.5 430.167,201.5 431.5,201.5C 433.343,213.489 428.343,218.656 416.5,217C 414.509,215.842 412.842,214.342 411.5,212.5C 406.444,217.272 400.444,218.772 393.5,217C 386.567,213.628 384.067,208.128 386,200.5C 387.08,198.004 388.414,195.67 390,193.5C 395.64,189.262 401.806,185.929 408.5,183.5C 409.773,179.45 409.606,175.45 408,171.5C 405.083,169.607 401.916,169.107 398.5,170C 400.949,171.863 401.949,174.363 401.5,177.5C 401.673,183.828 398.673,186.328 392.5,185C 387.702,180.428 387.202,175.261 391,169.5C 393.843,166.837 397.009,164.837 400.5,163.5 Z M 405.5,167.5 C 410.697,166.074 414.864,167.741 418,172.5C 419.251,184.777 419.918,197.11 420,209.5C 420.652,211.723 422.152,212.89 424.5,213C 419.08,215.856 414.913,214.689 412,209.5C 410.727,197.237 410.06,184.903 410,172.5C 409.004,170.34 407.504,168.673 405.5,167.5 Z M 392.5,169.5 C 393.054,171.889 394.554,173.555 397,174.5C 398.689,180.466 396.689,182.799 391,181.5C 389.226,177.285 389.726,173.285 392.5,169.5 Z M 401.5,189.5 C 395.553,195.469 394.053,202.469 397,210.5C 398.319,212.487 400.152,213.654 402.5,214C 390.155,216.323 385.322,211.49 388,199.5C 391.325,194.587 395.825,191.254 401.5,189.5 Z M 407.5,190.5 C 408.805,192.397 409.471,194.731 409.5,197.5C 409.472,201.236 408.972,204.903 408,208.5C 405.667,211.167 403.333,211.167 401,208.5C 398.511,200.798 400.678,194.798 407.5,190.5 Z"/></g>
<g><path style="opacity:0.698" fill="#c7ad66" d="M 504.5,163.5 C 515.949,162.467 523.116,167.467 526,178.5C 527.075,182.77 527.575,187.103 527.5,191.5C 518.5,191.5 509.5,191.5 500.5,191.5C 500.624,196.289 501.458,200.955 503,205.5C 505.353,210.426 509.186,212.26 514.5,211C 518.34,208.326 521.673,205.159 524.5,201.5C 525.902,201.865 526.902,202.699 527.5,204C 520.819,218.109 510.485,221.443 496.5,214C 482.322,198.946 481.989,183.612 495.5,168C 498.437,166.199 501.437,164.699 504.5,163.5 Z M 510.5,167.5 C 517.059,169.206 520.892,173.54 522,180.5C 522.567,183.168 523.067,185.834 523.5,188.5C 520.167,188.5 516.833,188.5 513.5,188.5C 514.218,181.173 513.218,174.173 510.5,167.5 Z M 498.5,168.5 C 499.043,168.56 499.376,168.893 499.5,169.5C 495.338,182.906 495.504,196.239 500,209.5C 501.543,211.378 503.376,212.878 505.5,214C 495.121,212.955 489.288,207.122 488,196.5C 485.732,184.846 489.232,175.513 498.5,168.5 Z M 505.5,168.5 C 508.238,167.965 510.072,168.965 511,171.5C 512.225,176.085 512.725,180.752 512.5,185.5C 508.5,185.5 504.5,185.5 500.5,185.5C 500.793,179.354 502.46,173.688 505.5,168.5 Z"/></g>
<g><path style="opacity:0.686" fill="#c7ad66" d="M 551.5,163.5 C 564.442,162.602 571.942,168.602 574,181.5C 574.498,184.817 574.665,188.15 574.5,191.5C 565.833,191.5 557.167,191.5 548.5,191.5C 547.838,197.563 549.004,203.23 552,208.5C 555.453,211.769 559.286,212.269 563.5,210C 566.206,207.629 568.539,204.963 570.5,202C 572.607,201.146 573.941,201.812 574.5,204C 569.39,216.383 560.39,220.383 547.5,216C 535.699,208.228 531.199,197.395 534,183.5C 536.402,173.616 542.235,166.949 551.5,163.5 Z M 558.5,167.5 C 561.643,168.134 564.143,169.8 566,172.5C 568.747,177.489 570.247,182.822 570.5,188.5C 567.102,188.82 563.768,188.487 560.5,187.5C 561.803,180.668 561.137,174.002 558.5,167.5 Z M 545.5,168.5 C 546.239,168.369 546.906,168.536 547.5,169C 542.027,182.889 542.194,196.722 548,210.5C 549.214,212.049 550.714,213.215 552.5,214C 542.372,212.2 536.539,206.033 535,195.5C 533.555,184.416 537.055,175.416 545.5,168.5 Z M 552.5,168.5 C 554.722,168.178 556.556,168.845 558,170.5C 559.25,175.42 559.75,180.42 559.5,185.5C 555.833,185.5 552.167,185.5 548.5,185.5C 548.111,179.389 549.445,173.723 552.5,168.5 Z"/></g>
<g><path style="opacity:0.733" fill="#c7ad66" d="M 310.5,164.5 C 315.167,164.5 319.833,164.5 324.5,164.5C 324.333,178.837 324.5,193.171 325,207.5C 326.786,210.902 329.286,211.402 332.5,209C 333.714,206.649 334.548,204.149 335,201.5C 335.667,192.167 335.667,182.833 335,173.5C 333.948,171.189 332.115,169.856 329.5,169.5C 328.571,168.311 328.238,166.978 328.5,165.5C 335.143,164.788 341.809,164.454 348.5,164.5C 348.333,178.504 348.5,192.504 349,206.5C 349.727,209.955 351.893,211.621 355.5,211.5C 355.5,213.167 355.5,214.833 355.5,216.5C 349.132,216.83 342.798,216.496 336.5,215.5C 336.192,214.692 335.692,214.025 335,213.5C 329.348,217.743 323.181,218.577 316.5,216C 313.246,213.658 311.412,210.491 311,206.5C 310.667,194.833 310.333,183.167 310,171.5C 308.559,170.74 307.059,170.074 305.5,169.5C 304.571,168.311 304.238,166.978 304.5,165.5C 306.735,165.795 308.735,165.461 310.5,164.5 Z M 308.5,168.5 C 312.298,167.517 316.298,167.183 320.5,167.5C 320.333,181.504 320.5,195.504 321,209.5C 322.066,212.563 324.233,214.063 327.5,214C 323.375,214.854 319.375,214.52 315.5,213C 314.107,211.829 313.273,210.329 313,208.5C 311.306,197.513 311.139,186.513 312.5,175.5C 312.272,172.433 310.939,170.1 308.5,168.5 Z M 332.5,168.5 C 336.298,167.517 340.298,167.183 344.5,167.5C 344.333,181.171 344.5,194.837 345,208.5C 345.273,210.329 346.107,211.829 347.5,213C 344.183,213.498 340.85,213.665 337.5,213.5C 336.737,199.525 336.237,185.525 336,171.5C 335.578,169.574 334.411,168.574 332.5,168.5 Z"/></g>
<g><path style="opacity:0.705" fill="#c7ad66" d="M 624.5,164.5 C 624.5,166.167 624.5,167.833 624.5,169.5C 621.225,170.274 619.058,172.274 618,175.5C 612.614,193.716 606.614,211.716 600,229.5C 594.264,236.64 587.931,237.307 581,231.5C 577.751,225.991 578.584,221.158 583.5,217C 586.956,215.877 589.79,216.71 592,219.5C 592.333,222.5 592.667,225.5 593,228.5C 595.609,225.617 597.442,222.283 598.5,218.5C 593.033,202.933 587.866,187.266 583,171.5C 580.863,170.521 579.029,169.188 577.5,167.5C 577.833,166.833 578.167,166.167 578.5,165.5C 586.807,164.502 595.14,164.169 603.5,164.5C 604.113,168.512 602.446,170.512 598.5,170.5C 599.693,179.243 602.193,187.577 606,195.5C 608.37,188.056 610.537,180.556 612.5,173C 611.593,170.457 609.759,168.957 607,168.5C 606.508,167.451 606.674,166.451 607.5,165.5C 613.128,164.505 618.794,164.171 624.5,164.5 Z M 581.5,168.5 C 586.316,167.35 591.316,167.184 596.5,168C 594.901,169.066 593.901,170.566 593.5,172.5C 596.381,183.477 600.047,194.143 604.5,204.5C 602.901,208.796 601.401,213.129 600,217.5C 594.484,201.952 589.15,186.285 584,170.5C 583.292,169.619 582.458,168.953 581.5,168.5 Z M 611.5,168.5 C 613.628,167.371 615.961,167.204 618.5,168C 616.697,168.637 615.364,169.803 614.5,171.5C 613.712,170.23 612.712,169.23 611.5,168.5 Z M 586.5,232.5 C 583.708,232.548 581.875,231.215 581,228.5C 580.333,226.167 580.333,223.833 581,221.5C 584.813,218.411 587.313,219.245 588.5,224C 587.014,226.589 586.347,229.423 586.5,232.5 Z"/></g>
<g><path style="opacity:0.876" fill="#c7ad66" d="M 119.5,193.5 C 121.604,193.201 123.604,193.534 125.5,194.5C 126.833,201.833 126.833,209.167 125.5,216.5C 123.604,217.466 121.604,217.799 119.5,217.5C 119.5,209.5 119.5,201.5 119.5,193.5 Z"/></g>
</svg>
